<svg width="19" height="19" viewBox="0 0 19 19" fill="none" xmlns="http://www.w3.org/2000/svg">
<path d="M9.14823 0.506847L9.25 0.5C9.6297 0.5 9.94349 0.782154 9.99315 1.14823L10 1.25V8.5H17.25C17.6297 8.5 17.9435 8.78215 17.9932 9.14823L18 9.25C18 9.6297 17.7178 9.94349 17.3518 9.99315L17.25 10H10V17.25C10 17.6297 9.71785 17.9435 9.35177 17.9932L9.25 18C8.8703 18 8.55651 17.7178 8.50685 17.3518L8.5 17.25V10H1.25C0.870304 10 0.556509 9.71785 0.506847 9.35177L0.5 9.25C0.5 8.8703 0.782154 8.55651 1.14823 8.50685L1.25 8.5H8.5V1.25C8.5 0.870304 8.78215 0.556509 9.14823 0.506847L9.25 0.5L9.14823 0.506847Z" fill="#007AFF"/>
</svg>
